<svg xmlns="http://www.w3.org/2000/svg" xmlns:xlink="http://www.w3.org/1999/xlink" width="137.917" height="131.263" viewBox="0 0 137.917 131.263">
  <defs>
    <linearGradient id="linear-gradient" x1="0.628" y1="0.945" x2="0.238" y2="0.346" gradientUnits="objectBoundingBox">
      <stop offset="0.263" stop-color="#0093d5"/>
      <stop offset="0.401" stop-color="#008ed0"/>
      <stop offset="0.549" stop-color="#0082c3"/>
      <stop offset="0.701" stop-color="#006dae"/>
      <stop offset="0.856" stop-color="#005090"/>
      <stop offset="1" stop-color="#002e6e"/>
    </linearGradient>
    <linearGradient id="linear-gradient-2" y1="0.5" x2="1" y2="0.5" gradientUnits="objectBoundingBox">
      <stop offset="0" stop-color="#0093d5"/>
      <stop offset="0.188" stop-color="#008ed0"/>
      <stop offset="0.388" stop-color="#0082c3"/>
      <stop offset="0.595" stop-color="#006dae"/>
      <stop offset="0.804" stop-color="#005090"/>
      <stop offset="1" stop-color="#002e6e"/>
    </linearGradient>
    <linearGradient id="linear-gradient-3" x1="0.285" y1="0.358" x2="0.791" y2="1.613" gradientUnits="objectBoundingBox">
      <stop offset="0" stop-color="#002e6e"/>
      <stop offset="0.196" stop-color="#005090"/>
      <stop offset="0.405" stop-color="#006dae"/>
      <stop offset="0.612" stop-color="#0082c3"/>
      <stop offset="0.812" stop-color="#008ed0"/>
      <stop offset="1" stop-color="#0093d5"/>
    </linearGradient>
  </defs>
  <g id="logo" transform="translate(-156 -43)">
    <g id="Group_4752" data-name="Group 4752" transform="translate(19.639 -173.738)">
      <g id="Group_4747" data-name="Group 4747" transform="translate(157.199 216.738)">
        <path id="Path_19911" data-name="Path 19911" d="M158.373,299.25h6.3c11.99-1.206,5.6-1.152,18.339-7.281,5.837-2.807,10.025-11.856,18.714-15.443,21.606-8.919,18.826-3.958,28.771-3.958-13.337-10.678-17.5-6.472-27.456-5.435-6.359.66-11.743-4.434-11.5-9.9.235-5.226,6.693-9.85,11.893-10.89l-14.456-.143Z" transform="translate(-158.373 -218.31)" fill="url(#linear-gradient)"/>
        <path id="Path_19912" data-name="Path 19912" d="M181.355,259.967c10.041-11.781,21.46-15.719,27.738-15.719,7.472,0,13.83,4.458,18.326,9.1l-21.124-36.612Z" transform="translate(-159.599 -216.738)" fill="url(#linear-gradient-2)"/>
        <path id="Path_19913" data-name="Path 19913" d="M163.261,300.337c27.17,0,27.308-20.568,42.069-20.568s14.9,20.568,42.069,20.568h4.63s-14.327-28.675-33.207-33.3a15.907,15.907,0,0,0-3.794-.469c-17.781,0-28.221,31.394-51.766,33.764" transform="translate(-158.634 -219.396)" fill="url(#linear-gradient-3)"/>
      </g>
      <g id="Group_4750" data-name="Group 4750" transform="translate(136.361 310.088)">
        <g id="Group_4748" data-name="Group 4748">
          <path id="Path_19914" data-name="Path 19914" d="M136.361,344.277a.454.454,0,1,1,.906,0v4.356c0,.062.029.1.092.1h5.305c.068,0,.114-.033.114-.1v-4.356a.453.453,0,1,1,.9,0v9.913a.453.453,0,1,1-.9,0v-4.512c0-.063-.045-.1-.114-.1h-5.305c-.062,0-.092.033-.092.1v4.512a.454.454,0,1,1-.906,0Z" transform="translate(-136.361 -316.864)" fill="#6a747b"/>
          <path id="Path_19915" data-name="Path 19915" d="M151.2,350.418a.084.084,0,0,0,.095-.1,3.548,3.548,0,0,0-.142-1.076,1.988,1.988,0,0,0-2.029-1.425,1.963,1.963,0,0,0-2.01,1.425,3.374,3.374,0,0,0-.144,1.076.086.086,0,0,0,.1.1Zm-4.862,2.5a5.855,5.855,0,0,1-.24-1.963,5.988,5.988,0,0,1,.24-1.964,2.972,2.972,0,0,1,5.592,0,5.744,5.744,0,0,1,.237,1.805.372.372,0,0,1-.4.395h-4.7a.084.084,0,0,0-.1.095,3.789,3.789,0,0,0,.159,1.316,2.076,2.076,0,0,0,2.138,1.474,2.636,2.636,0,0,0,2.043-.856.484.484,0,0,1,.318-.161.364.364,0,0,1,.379.367.439.439,0,0,1-.1.284,3.312,3.312,0,0,1-2.692,1.188,2.77,2.77,0,0,1-2.881-1.979" transform="translate(-136.881 -317.037)" fill="#6a747b"/>
          <path id="Path_19916" data-name="Path 19916" d="M159.412,352.412v-1.124c0-.065-.03-.1-.092-.1h-1.807c-1.505,0-2.139.462-2.139,1.476,0,.932.65,1.425,1.871,1.425,1.3,0,2.168-.633,2.168-1.681m1.349,1.982a.409.409,0,0,1-.443.412.446.446,0,0,1-.412-.27l-.367-.6h-.03a2.9,2.9,0,0,1-2.408.966,2.28,2.28,0,0,1-2.579-2.231c0-1.492,1.042-2.25,2.862-2.25h1.937c.062,0,.092-.032.092-.1v-.537c0-1.252-.474-1.949-1.962-1.949a3.573,3.573,0,0,0-1.724.474.565.565,0,0,1-.3.1.374.374,0,0,1-.4-.392.462.462,0,0,1,.177-.349,3.869,3.869,0,0,1,2.293-.635c1.873,0,2.743.84,2.743,2.691v3.059a1.51,1.51,0,0,0,.156.806l.3.571a.629.629,0,0,1,.064.239" transform="translate(-137.33 -317.037)" fill="#6a747b"/>
          <path id="Path_19917" data-name="Path 19917" d="M164.689,354.667c-1.154,0-1.566-.538-1.566-1.773V344.25a.429.429,0,1,1,.856,0v8.614c0,.741.205.981.871.981a.412.412,0,1,1,0,.823Z" transform="translate(-137.788 -316.864)" fill="#6a747b"/>
          <path id="Path_19918" data-name="Path 19918" d="M170.478,354.667c-1.394,0-1.935-.538-1.935-2.029v-4.778c0-.065-.027-.1-.092-.1h-.618a.381.381,0,1,1,0-.759h.618c.064,0,.092-.03.092-.1V344.25a.431.431,0,1,1,.861,0v2.657c0,.065.029.1.092.1h1.2a.381.381,0,1,1,0,.759h-1.2c-.062,0-.092.033-.092.1v4.748c0,1,.315,1.236,1.28,1.236a.413.413,0,1,1,0,.823Z" transform="translate(-138.018 -316.864)" fill="#6a747b"/>
          <path id="Path_19919" data-name="Path 19919" d="M178.24,354.223v-4.23c0-1.5-.665-2.264-1.98-2.264a2,2,0,0,0-2.058,2.105v4.389a.429.429,0,1,1-.856,0v-9.976a.429.429,0,1,1,.856,0v3.734h.015a2.5,2.5,0,0,1,2.234-1.074c1.663,0,2.645,1.045,2.645,2.883v4.434a.429.429,0,1,1-.856,0" transform="translate(-138.334 -316.864)" fill="#6a747b"/>
          <path id="Path_19920" data-name="Path 19920" d="M181.67,348.991a2.776,2.776,0,0,1,2.818-1.963,2.7,2.7,0,0,1,2.438,1.267.431.431,0,0,1,.064.253.376.376,0,0,1-.379.382.463.463,0,0,1-.4-.24,1.947,1.947,0,0,0-1.727-.838,1.918,1.918,0,0,0-1.98,1.409,5.272,5.272,0,0,0-.206,1.713,5.146,5.146,0,0,0,.206,1.695,1.92,1.92,0,0,0,1.98,1.409,1.945,1.945,0,0,0,1.727-.842.467.467,0,0,1,.4-.236.374.374,0,0,1,.379.382.43.43,0,0,1-.064.252,2.7,2.7,0,0,1-2.438,1.267,2.773,2.773,0,0,1-2.818-1.963,6.6,6.6,0,0,1-.239-1.962,6.719,6.719,0,0,1,.239-1.981" transform="translate(-138.765 -317.037)" fill="#6a747b"/>
          <path id="Path_19921" data-name="Path 19921" d="M194.206,352.412v-1.124c0-.065-.033-.1-.1-.1h-1.8c-1.5,0-2.137.462-2.137,1.476,0,.932.649,1.425,1.866,1.425,1.3,0,2.171-.633,2.171-1.681m1.347,1.982a.41.41,0,0,1-.444.412.447.447,0,0,1-.41-.27l-.366-.6H194.3a2.9,2.9,0,0,1-2.408.966c-1.456,0-2.58-.791-2.58-2.231,0-1.492,1.044-2.25,2.866-2.25h1.928a.086.086,0,0,0,.1-.1v-.537c0-1.252-.474-1.949-1.965-1.949a3.594,3.594,0,0,0-1.724.474.539.539,0,0,1-.3.1.371.371,0,0,1-.395-.392.465.465,0,0,1,.171-.349,3.879,3.879,0,0,1,2.3-.635c1.867,0,2.737.84,2.737,2.691v3.059a1.5,1.5,0,0,0,.161.806l.3.571a.6.6,0,0,1,.063.239" transform="translate(-139.185 -317.037)" fill="#6a747b"/>
          <path id="Path_19922" data-name="Path 19922" d="M197.915,354.4v-6.765a.429.429,0,1,1,.857,0v.731h.01a2.021,2.021,0,0,1,1.983-1.284,2.467,2.467,0,0,1,1.3.331.424.424,0,0,1-.176.811.579.579,0,0,1-.219-.05,2.484,2.484,0,0,0-1.062-.27c-1.331,0-1.836,1.142-1.836,2.553V354.4a.429.429,0,1,1-.857,0" transform="translate(-139.644 -317.039)" fill="#6a747b"/>
          <path id="Path_19923" data-name="Path 19923" d="M208.753,350.418a.086.086,0,0,0,.1-.1,3.423,3.423,0,0,0-.146-1.076,2.143,2.143,0,0,0-4.038,0,3.544,3.544,0,0,0-.143,1.076.087.087,0,0,0,.1.1Zm-4.863,2.5a5.9,5.9,0,0,1-.238-1.963,6.03,6.03,0,0,1,.238-1.964,2.973,2.973,0,0,1,5.593,0,5.685,5.685,0,0,1,.238,1.805.373.373,0,0,1-.4.395h-4.7a.086.086,0,0,0-.1.095,3.757,3.757,0,0,0,.162,1.316,2.074,2.074,0,0,0,2.137,1.474,2.645,2.645,0,0,0,2.044-.856.472.472,0,0,1,.317-.161.363.363,0,0,1,.378.367.446.446,0,0,1-.092.284,3.313,3.313,0,0,1-2.694,1.188,2.773,2.773,0,0,1-2.884-1.979" transform="translate(-139.95 -317.037)" fill="#6a747b"/>
          <path id="Path_19924" data-name="Path 19924" d="M219.759,353.727a.484.484,0,0,1-.24-.426.458.458,0,0,1,.461-.446.681.681,0,0,1,.333.109,5.215,5.215,0,0,0,2.863.954c1.727,0,2.789-.889,2.789-2.2,0-1.08-.6-1.838-2.583-2.091l-.5-.065c-2.109-.27-3.089-1.286-3.089-2.85,0-1.87,1.33-3.024,3.374-3.024a5.3,5.3,0,0,1,2.77.712.531.531,0,0,1,.3.442.427.427,0,0,1-.428.428.737.737,0,0,1-.317-.095,4.821,4.821,0,0,0-2.359-.634c-1.569,0-2.44.873-2.44,2.089,0,1.11.683,1.822,2.533,2.06l.494.064c2.136.268,3.149,1.281,3.149,2.9,0,1.821-1.3,3.12-3.8,3.12a5.9,5.9,0,0,1-3.309-1.044" transform="translate(-140.796 -316.859)" fill="#6a747b"/>
          <path id="Path_19925" data-name="Path 19925" d="M234.352,352.668a7.072,7.072,0,0,0,0-3.407,2.125,2.125,0,0,0-4,0,5.063,5.063,0,0,0-.206,1.7,5.114,5.114,0,0,0,.206,1.712,2.126,2.126,0,0,0,4,0m-4.823.267a7.759,7.759,0,0,1,0-3.943,3.012,3.012,0,0,1,5.648,0,7.815,7.815,0,0,1,0,3.943,3.012,3.012,0,0,1-5.648,0" transform="translate(-141.317 -317.037)" fill="#6a747b"/>
          <path id="Path_19926" data-name="Path 19926" d="M239.331,354.667c-1.154,0-1.563-.538-1.563-1.773V344.25a.428.428,0,1,1,.854,0v8.614c0,.741.2.981.871.981a.412.412,0,1,1,0,.823Z" transform="translate(-141.77 -316.864)" fill="#6a747b"/>
          <path id="Path_19927" data-name="Path 19927" d="M246.877,354.3v-.522h-.013a2.406,2.406,0,0,1-2.2,1.077c-1.665,0-2.614-1.048-2.614-2.883v-4.436a.428.428,0,1,1,.854,0v4.231c0,1.5.633,2.263,1.95,2.263a1.974,1.974,0,0,0,2.025-2.106v-4.388a.428.428,0,1,1,.854,0V354.3a.428.428,0,1,1-.854,0" transform="translate(-141.998 -317.039)" fill="#6a747b"/>
          <path id="Path_19928" data-name="Path 19928" d="M253.1,354.667c-1.394,0-1.933-.538-1.933-2.029v-4.778c0-.065-.027-.1-.093-.1h-.62a.381.381,0,1,1,0-.759h.62c.066,0,.093-.03.093-.1V344.25a.43.43,0,1,1,.858,0v2.657c0,.065.028.1.095.1h1.205a.381.381,0,1,1,0,.759h-1.205c-.066,0-.095.033-.095.1v4.748c0,1,.312,1.236,1.28,1.236a.413.413,0,1,1,0,.823Z" transform="translate(-142.424 -316.864)" fill="#6a747b"/>
          <path id="Path_19929" data-name="Path 19929" d="M256.181,354.091v-6.763a.431.431,0,1,1,.86,0v6.763a.431.431,0,1,1-.86,0m-.234-11.164a.666.666,0,1,1,.667.664.668.668,0,0,1-.667-.664" transform="translate(-142.739 -316.782)" fill="#6a747b"/>
          <path id="Path_19930" data-name="Path 19930" d="M264.43,352.668a5.139,5.139,0,0,0,.206-1.712,5.087,5.087,0,0,0-.206-1.7,2.125,2.125,0,0,0-4,0,5.005,5.005,0,0,0-.208,1.7,5.056,5.056,0,0,0,.208,1.712,2.126,2.126,0,0,0,4,0m-4.828.267a7.73,7.73,0,0,1,0-3.943,3.016,3.016,0,0,1,5.653,0,7.815,7.815,0,0,1,0,3.943,3.016,3.016,0,0,1-5.653,0" transform="translate(-142.92 -317.037)" fill="#6a747b"/>
          <path id="Path_19931" data-name="Path 19931" d="M272.737,354.4v-4.229c0-1.5-.663-2.266-1.979-2.266a2,2,0,0,0-2.061,2.107V354.4a.427.427,0,1,1-.852,0v-6.765a.427.427,0,1,1,.852,0v.523h.019a2.46,2.46,0,0,1,2.233-1.075c1.664,0,2.647,1.046,2.647,2.881V354.4a.43.43,0,1,1-.859,0" transform="translate(-143.374 -317.039)" fill="#6a747b"/>
          <path id="Path_19932" data-name="Path 19932" d="M276.1,354.012a.454.454,0,0,1-.189-.366.4.4,0,0,1,.412-.4.512.512,0,0,1,.284.095,3.913,3.913,0,0,0,2.3.764c1.315,0,1.965-.6,1.965-1.457,0-.779-.333-1.171-1.725-1.333l-.778-.077c-1.395-.145-2.185-.825-2.185-2,0-1.393,1.011-2.217,2.659-2.217a4.613,4.613,0,0,1,2.249.57.434.434,0,0,1,.271.4.373.373,0,0,1-.365.381.655.655,0,0,1-.317-.08,4.378,4.378,0,0,0-1.881-.474c-1.159,0-1.762.506-1.762,1.345,0,.73.447,1.142,1.728,1.269l.776.08c1.456.156,2.184.824,2.184,2.042,0,1.426-1.03,2.343-2.9,2.343a4.621,4.621,0,0,1-2.725-.887" transform="translate(-143.804 -317.037)" fill="#6a747b"/>
          <path id="Path_19933" data-name="Path 19933" d="M172.707,335.233a5.531,5.531,0,0,0,1.481-.2,4.344,4.344,0,0,0,1.312-.613,3.174,3.174,0,0,0,.931-.991,2.611,2.611,0,0,0,.349-1.367,2.925,2.925,0,0,0-.48-1.655,5.567,5.567,0,0,0-1.259-1.327,12.362,12.362,0,0,0-1.779-1.137c-.665-.356-1.344-.714-2.035-1.068s-1.373-.731-2.037-1.124a10.119,10.119,0,0,1-1.779-1.31,6.294,6.294,0,0,1-1.26-1.619,4.278,4.278,0,0,1-.48-2.053,5.281,5.281,0,0,1,.436-2.152,4.773,4.773,0,0,1,1.274-1.715,6.064,6.064,0,0,1,2.068-1.14,8.869,8.869,0,0,1,2.814-.411,9.9,9.9,0,0,1,2.566.3,6.322,6.322,0,0,1,1.981.9,5.682,5.682,0,0,1,1.449,1.464,7.626,7.626,0,0,1,.962,2.017l-1.738.792a7.946,7.946,0,0,0-.778-1.7,5.4,5.4,0,0,0-1.131-1.32,4.748,4.748,0,0,0-1.517-.846,5.882,5.882,0,0,0-1.945-.3,4.816,4.816,0,0,0-1.678.265,3.737,3.737,0,0,0-1.2.7,2.8,2.8,0,0,0-.718.976,2.733,2.733,0,0,0-.236,1.107,2.41,2.41,0,0,0,.487,1.459,5.927,5.927,0,0,0,1.3,1.25,16.177,16.177,0,0,0,1.838,1.139c.686.364,1.386.737,2.1,1.111s1.41.771,2.1,1.175a11.711,11.711,0,0,1,1.838,1.338,6.254,6.254,0,0,1,1.3,1.589,3.838,3.838,0,0,1,.487,1.926,5.664,5.664,0,0,1-.456,2.267,5.045,5.045,0,0,1-1.373,1.847,6.76,6.76,0,0,1-2.277,1.244,9.927,9.927,0,0,1-3.157.456,9.769,9.769,0,0,1-2.61-.319,6.621,6.621,0,0,1-2.02-.931,6.13,6.13,0,0,1-1.5-1.486,8,8,0,0,1-1.023-2.008l1.817-.749a6.567,6.567,0,0,0,.862,1.771,5.69,5.69,0,0,0,1.259,1.32,5.428,5.428,0,0,0,1.593.831,5.876,5.876,0,0,0,1.871.291" transform="translate(-137.905 -315.347)"/>
          <path id="Path_19934" data-name="Path 19934" d="M188.242,326a10.638,10.638,0,0,0,.642,3.807,8.309,8.309,0,0,0,1.763,2.854,7.546,7.546,0,0,0,2.647,1.785,8.744,8.744,0,0,0,3.312.62,5.312,5.312,0,0,0,2.061-.412,7.994,7.994,0,0,0,1.838-1.077,9.589,9.589,0,0,0,2.617-3.183l1.435.915a13.018,13.018,0,0,1-1.48,1.961,9.863,9.863,0,0,1-4.512,2.815,10.8,10.8,0,0,1-3.151.425,11.975,11.975,0,0,1-4.571-.834,10.821,10.821,0,0,1-3.517-2.276,10.024,10.024,0,0,1-2.264-3.351,10.345,10.345,0,0,1-.8-4.051,10.362,10.362,0,0,1,3.12-7.468,10.655,10.655,0,0,1,2.26-1.7,11.359,11.359,0,0,1,2.754-1.1,12.615,12.615,0,0,1,3.189-.39,9.78,9.78,0,0,1,2.983.435,10.363,10.363,0,0,1,4.488,2.811,12.112,12.112,0,0,1,1.5,1.961l-1.48.975a9.946,9.946,0,0,0-2.841-3.594,6,6,0,0,0-3.615-1.138,8.36,8.36,0,0,0-3.279.641,7.8,7.8,0,0,0-2.665,1.833,8.461,8.461,0,0,0-1.784,2.89,10.689,10.689,0,0,0-.65,3.838" transform="translate(-138.916 -315.347)"/>
        </g>
        <path id="Path_19935" data-name="Path 19935" d="M223.469,315.832v1.314H212.8v7.232h7.139v1.311H212.8v9.063h10.664v1.314H209.4V315.832Z" transform="translate(-140.256 -315.373)"/>
        <g id="Group_4749" data-name="Group 4749" transform="translate(107.074 0.458)">
          <path id="Path_19936" data-name="Path 19936" d="M252.871,334.587h3.616a9.133,9.133,0,0,0,3.221-.564,7.355,7.355,0,0,0,2.634-1.68,7.922,7.922,0,0,0,1.769-2.738,10.086,10.086,0,0,0,.649-3.765,9.378,9.378,0,0,0-.611-3.44,7.98,7.98,0,0,0-1.71-2.691,7.666,7.666,0,0,0-2.618-1.757,8.639,8.639,0,0,0-3.32-.626h-3.631Zm-3.4-18.756h6.746a21.662,21.662,0,0,1,5.358.577,9.161,9.161,0,0,1,3.738,1.865,9.69,9.69,0,0,1,2.572,3.357,9.832,9.832,0,0,1,.862,4.135,10.478,10.478,0,0,1-.77,4.012,9.261,9.261,0,0,1-2.261,3.276,10.692,10.692,0,0,1-3.677,2.2,14.413,14.413,0,0,1-5.015.81h-7.554Z" transform="translate(-249.467 -315.831)"/>
        </g>
        <path id="Path_19937" data-name="Path 19937" d="M144.86,328.188h8.927l-4.4-7.835Zm6.117-12.356,11.389,20.237h-4.144l-3.687-6.6H144.15l-3.815,6.6H138.29l11.664-20.237Z" transform="translate(-136.464 -315.373)"/>
        <path id="Path_19938" data-name="Path 19938" d="M243.149,330.635h.154v-14.8l1.5,0V336.07h-1.2l-13.952-15.982h-.122v15.98h-1.539V315.835h1.909Z" transform="translate(-141.248 -315.373)"/>
      </g>
    </g>
  </g>
</svg>
